<?xml version="1.0" encoding="UTF-8" standalone="no"?>
<!-- Created with Inkscape (http://www.inkscape.org/) -->

<svg
   xmlns:dc="http://purl.org/dc/elements/1.1/"
   xmlns:cc="http://creativecommons.org/ns#"
   xmlns:rdf="http://www.w3.org/1999/02/22-rdf-syntax-ns#"
   xmlns:svg="http://www.w3.org/2000/svg"
   xmlns="http://www.w3.org/2000/svg"
   xmlns:sodipodi="http://sodipodi.sourceforge.net/DTD/sodipodi-0.dtd"
   xmlns:inkscape="http://www.inkscape.org/namespaces/inkscape"
   width="210mm"
   height="297mm"
   viewBox="0 0 210 297"
   version="1.1"
   id="svg8"
   inkscape:version="0.92.4 5da689c313, 2019-01-14"
   sodipodi:docname="icon.svg">
  <defs
     id="defs2" />
  <sodipodi:namedview
     id="base"
     pagecolor="#ffffff"
     bordercolor="#666666"
     borderopacity="1.0"
     inkscape:pageopacity="0.0"
     inkscape:pageshadow="2"
     inkscape:zoom="1"
     inkscape:cx="597.75553"
     inkscape:cy="661.85365"
     inkscape:document-units="mm"
     inkscape:current-layer="layer1"
     showgrid="false"
     inkscape:window-width="1920"
     inkscape:window-height="1016"
     inkscape:window-x="0"
     inkscape:window-y="27"
     inkscape:window-maximized="1" />
  <metadata
     id="metadata5">
    <rdf:RDF>
      <cc:Work
         rdf:about="">
        <dc:format>image/svg+xml</dc:format>
        <dc:type
           rdf:resource="http://purl.org/dc/dcmitype/StillImage" />
        <dc:title></dc:title>
      </cc:Work>
    </rdf:RDF>
  </metadata>
  <g
     inkscape:label="Layer 1"
     inkscape:groupmode="layer"
     id="layer1">
    <path
       id="path5231"
       d="M 295.29929,92.754636 A 61.526733,61.152561 0 0 1 233.77255,153.90719 61.526733,61.152561 0 0 1 172.24581,92.754636 61.526733,61.152561 0 0 1 233.77255,31.602069 61.526733,61.152561 0 0 1 295.29929,92.754636 Z"
       style="opacity:1;fill:#0088aa;fill-opacity:1;stroke:none;stroke-width:1.05086315;stroke-miterlimit:4;stroke-dasharray:none;stroke-opacity:1"
       inkscape:connector-curvature="0" />
    <path
       style="opacity:1;fill:#0088aa;fill-opacity:1;stroke:none;stroke-width:3.77952766;stroke-miterlimit:4;stroke-dasharray:none;stroke-opacity:1"
       d="M 73.498047 67.515625 C 60.202047 67.515625 49.498047 78.219629 49.498047 91.515625 L 49.498047 511.62109 C 49.498047 524.91709 60.202047 535.62109 73.498047 535.62109 L 493.60156 535.62109 C 506.89756 535.62109 517.60156 524.91709 517.60156 511.62109 L 517.60156 91.515625 C 517.60156 78.219629 506.89756 67.515625 493.60156 67.515625 L 73.498047 67.515625 z M 203.16016 106.63086 L 361.93945 106.63086 L 361.93945 213.13086 L 203.16016 213.13086 L 203.16016 106.63086 z M 227.95312 369.21289 L 366.98633 369.21289 L 366.98633 412.72266 L 227.95312 412.72266 L 227.95312 369.21289 z M 199.34961 372.32422 A 9.2122956 9.2122956 0 0 1 208.5625 381.53711 A 9.2122956 9.2122956 0 0 1 199.34961 390.75 A 9.2122956 9.2122956 0 0 1 190.13672 381.53711 A 9.2122956 9.2122956 0 0 1 199.34961 372.32422 z M 199.34961 396.61523 A 3.1463839 3.2850162 0 0 1 202.49609 399.90039 A 3.1463839 3.2850162 0 0 1 199.34961 403.18555 A 3.1463839 3.2850162 0 0 1 196.20312 399.90039 A 3.1463839 3.2850162 0 0 1 199.34961 396.61523 z M 333.02539 441.14453 A 7.449038 6.7705013 0 0 1 340.47461 447.91406 A 7.449038 6.7705013 0 0 1 333.02539 454.68555 A 7.449038 6.7705013 0 0 1 325.57617 447.91406 A 7.449038 6.7705013 0 0 1 333.02539 441.14453 z M 232.57812 443.36133 A 7.4490382 6.7705015 0 0 1 240.02734 450.13281 A 7.4490382 6.7705015 0 0 1 232.57812 456.90234 A 7.4490382 6.7705015 0 0 1 225.12891 450.13281 A 7.4490382 6.7705015 0 0 1 232.57812 443.36133 z "
       id="rect5191"
       transform="scale(0.26458333)"
       inkscape:export-xdpi="52.5"
       inkscape:export-ydpi="52.5" />
    <path
       style="opacity:1;fill:#000000;fill-opacity:1;stroke:none;stroke-width:0.18333314;stroke-opacity:1"
       d="m 49.036798,94.033016 c -1.300517,0 -2.347659,1.04714 -2.347659,2.34766 v 26.663494 c 0,1.30051 1.047142,2.34766 2.347659,2.34766 h 51.972532 c 1.30051,0 2.34714,-1.04715 2.34714,-2.34766 V 96.380676 c 0,-1.30052 -1.04663,-2.34766 -2.34714,-2.34766 z m 11.275798,3.65456 H 97.098463 V 109.19954 H 60.312596 Z m -7.567496,0.82372 a 2.4374198,2.4374198 0 0 1 2.437059,2.437584 2.4374198,2.4374198 0 0 1 -2.437059,2.43706 2.4374198,2.4374198 0 0 1 -2.437577,-2.43706 2.4374198,2.4374198 0 0 1 2.437577,-2.437584 z m 0,6.426484 a 0.83248073,0.86916053 0 0 1 0.832506,0.8692 0.83248073,0.86916053 0 0 1 -0.832506,0.8692 0.83248073,0.86916053 0 0 1 -0.832509,-0.8692 0.83248073,0.86916053 0 0 1 0.832509,-0.8692 z m 35.368383,11.78171 a 1.9708914,1.7913619 0 0 1 1.970939,1.79162 1.9708914,1.7913619 0 0 1 -1.970939,1.79111 1.9708914,1.7913619 0 0 1 -1.970939,-1.79111 1.9708914,1.7913619 0 0 1 1.970939,-1.79162 z m -26.576673,0.58705 a 1.9708913,1.7913618 0 0 1 1.970939,1.7911 1.9708913,1.7913618 0 0 1 -1.970939,1.79162 1.9708913,1.7913618 0 0 1 -1.97094,-1.79162 1.9708913,1.7913618 0 0 1 1.97094,-1.7911 z"
       id="rect5091"
       inkscape:connector-curvature="0" />
    <path
       inkscape:connector-curvature="0"
       style="opacity:1;fill:#d40000;fill-opacity:1;stroke:none;stroke-width:0.26458332;stroke-opacity:1"
       d="m 109.3408,56.441269 1.14619,17.643369 4.47311,-2.985349 -0.17932,0.149862 c 0,0 4.79962,7.966681 4.67723,18.441768 -0.1224,10.475091 -6.14691,18.842271 -6.14691,18.842271 l 6.46782,5.22552 c 0,0 8.08932,-10.34307 7.96438,-23.132447 -0.11971,-12.253367 -4.96129,-21.299074 -6.42959,-23.766507 l 3.87987,-2.58899 z"
       id="rect5164" />
    <path
       id="path5173"
       d="m 37.383128,111.8823 0.698457,-17.666752 -4.75983,2.503009 0.193958,-0.130363 c 0,0 -3.943385,-8.423426 -2.730179,-18.82874 1.213219,-10.405312 8.07678,-18.099197 8.07678,-18.099197 l -5.888128,-5.87101 c 0,0 -9.123013,9.44387 -10.331372,22.176644 -1.157721,12.19914 2.714955,21.700091 3.918159,24.307089 l -4.128514,2.17063 z"
       style="opacity:1;fill:#d40000;fill-opacity:1;stroke:none;stroke-width:0.26458332;stroke-opacity:1"
       inkscape:connector-curvature="0" />
    <path
       id="path5233"
       d="m 269.75129,103.45993 h -21.45972 c -0.0655,1.75335 -1.30196,2.83227 -2.89776,2.83227 h -5.38131 c -1.65421,0 -2.92254,-1.54624 -2.90041,-2.83227 h -21.17384 c -0.77887,0 -1.41613,0.63726 -1.41613,1.41614 v 1.41613 c 0,3.11549 2.54904,5.66453 5.66453,5.66453 h 45.31624 c 3.11549,0 5.66453,-2.54904 5.66453,-5.66453 v -1.41613 c 0,-0.77888 -0.63726,-1.41614 -1.41613,-1.41614 z m -4.2484,-32.571038 c 0,-2.336619 -1.91178,-4.248398 -4.2484,-4.248398 h -36.81944 c -2.33662,0 -4.2484,1.911779 -4.2484,4.248398 v 29.738778 h 45.31624 z m -5.66453,24.074247 H 225.85118 V 72.305023 h 33.98718 z"
       inkscape:connector-curvature="0"
       style="fill:currentColor;stroke:none;stroke-width:0.08850826" />
    <path
       id="path5245"
       d="M 94.976545,25.008333 H 55.068561 c -2.203254,0 -3.990799,1.787545 -3.990799,3.990798 v 26.605325 c 0,2.203252 1.787545,3.990799 3.990799,3.990799 h 15.963193 l -1.330265,3.990799 h -5.986198 c -1.105787,0 -1.995402,0.889615 -1.995402,1.995399 0,1.105781 0.889615,1.995399 1.995402,1.995399 h 22.614527 c 1.105779,0 1.995394,-0.889618 1.995394,-1.995399 0,-1.105784 -0.889615,-1.995399 -1.995394,-1.995399 h -5.986199 l -1.330265,-3.990799 h 15.963191 c 2.203253,0 3.990797,-1.787547 3.990797,-3.990799 V 28.999131 c 0,-2.203253 -1.787544,-3.990798 -3.990797,-3.990798 z M 93.646279,54.274189 H 56.398827 V 30.329398 h 37.247452 z"
       inkscape:connector-curvature="0"
       style="fill:currentColor;stroke-width:0.08314164" />
  </g>
</svg>
